PathFileType        4      (X/Y/Z)      C:\Users\pc\Desktop\IMUTRC\Sujet_01\Sujet_01_velo_60.trc         
DataRate	CameraRate	NumFrames	NumMarkers	Units	OrigDataRate	OrigDataStartFrame	OrigNumFrames
60.0	60.0	4	64	mm	60.0	686	1370
Frame#	Time	pHipOrigin			pRightASI			pLeftASI			pRightCSI			pLeftCSI			pRightIschialTub			pLeftIschialTub			pSacrum			pL5SpinalProcess			pL3SpinalProcess			pT12SpinalProcess			pIJ			pT4SpinalProcess			pT8SpinalProcess			pPX			pC7SpinalProcess			pTopOfHead			pRightAuricularis			pLeftAuricularis			pBackOfHead			pRightAcromion			pLeftAcromion			pRightArmLatEpicondyle			pRightArmMedEpicondyle			pLeftArmLatEpicondyle			pLeftArmMedEpicondyle			pRightUlnarStyloid			pRightRadialStyloid			pRightOlecranon			pLeftUlnarStyloid			pLeftRadialStyloid			pLeftOlecranon			pRightTopOfHand			pRightPinky			pRightBallHand			pLeftTopOfHand			pLeftPinky			pLeftBallHand			pRightGreaterTrochanter			pRightKneeLatEpicondyle			pRightKneeMedEpicondyle			pRightPatella			pLeftGreaterTrochanter			pLeftKneeLatEpicondyle			pLeftKneeMedEpicondyle			pLeftPatella			pRightTibialTub			pRightLatMalleolus			pRightMedMalleolus			pLeftTibialTub			pLeftLatMalleolus			pLeftMedMalleolus			pRightHeelFoot			pRightFirstMetatarsal			pRightFifthMetatarsal			pRightPivotFoot			pRightHeelCenter			pRightToe			pLeftHeelFoot			pLeftFirstMetatarsal			pLeftFifthMetatarsal			pLeftPivotFoot			pLeftHeelCenter			pLeftToe			
		X1	Y1	Z1	X2	Y2	Z2	X3	Y3	Z3	X4	Y4	Z4	X5	Y5	Z5	X6	Y6	Z6	X7	Y7	Z7	X8	Y8	Z8	X9	Y9	Z9	X10	Y10	Z10	X11	Y11	Z11	X12	Y12	Z12	X13	Y13	Z13	X14	Y14	Z14	X15	Y15	Z15	X16	Y16	Z16	X17	Y17	Z17	X18	Y18	Z18	X19	Y19	Z19	X20	Y20	Z20	X21	Y21	Z21	X22	Y22	Z22	X23	Y23	Z23	X24	Y24	Z24	X25	Y25	Z25	X26	Y26	Z26	X27	Y27	Z27	X28	Y28	Z28	X29	Y29	Z29	X30	Y30	Z30	X31	Y31	Z31	X32	Y32	Z32	X33	Y33	Z33	X34	Y34	Z34	X35	Y35	Z35	X36	Y36	Z36	X37	Y37	Z37	X38	Y38	Z38	X39	Y39	Z39	X40	Y40	Z40	X41	Y41	Z41	X42	Y42	Z42	X43	Y43	Z43	X44	Y44	Z44	X45	Y45	Z45	X46	Y46	Z46	X47	Y47	Z47	X48	Y48	Z48	X49	Y49	Z49	X50	Y50	Z50	X51	Y51	Z51	X52	Y52	Z52	X53	Y53	Z53	X54	Y54	Z54	X55	Y55	Z55	X56	Y56	Z56	X57	Y57	Z57	X58	Y58	Z58	X59	Y59	Z59	X60	Y60	Z60	X61	Y61	Z61	X62	Y62	Z62	X63	Y63	Z63	X64	Y64	Z64	
686	11.417	0.0	1249.99075	7.653985854756496E-14	33.63062999999998	1331.83575	140.80861000000007	103.53205000000001	1334.9788	-98.5660299999999	7.480459999999987	1397.96551	110.88678000000009	64.93540000000002	1400.54281	-85.8681099999999	-68.9585	1203.41076	32.68771000000007	-40.23102999999999	1204.73084	-65.75258999999993	-56.51203	1276.51808	-16.15526999999993	-12.13217	1365.40352	-2.514439999999918	39.60242	1457.99776	15.149500000000094	89.89121	1540.84854	32.68771000000011	311.97908	1577.18219	109.69242000000014	210.45859	1667.01054	75.49605000000012	149.29485	1615.27595	53.683280000000124	231.26558	1502.81764	80.83923000000011	243.39775	1694.60652	89.19974000000013	404.19615	1867.91426	108.81237000000016	362.7079	1784.12056	176.01077000000018	370.62839	1778.52594	44.50558000000015	319.2081	1801.7845	106.54937000000015	199.83507999999998	1651.67246	256.3471100000001	311.28761	1638.66024	-75.93606999999986	285.01171999999997	1431.21898	325.74564000000015	269.29646999999994	1405.44597	281.0514800000002	433.36365	1427.38446	-96.61733999999986	395.39562	1396.83402	-73.48449999999987	380.12038999999993	1269.7291	413.0595500000001	411.9280499999999	1272.18068	382.7605600000001	259.9930499999999	1421.09836	318.7052100000002	577.88106	1278.96966	-100.64043999999984	581.27556	1281.04408	-56.82632999999985	411.48803	1415.0637	-107.61800999999986	553.61672	1248.41922	454.2335000000001	473.4689599999999	1251.12225	464.16554000000014	419.0942099999999	1254.13957	423.6202000000001	730.94757	1223.40055	-29.670389999999838	676.7614	1244.08182	-85.93096999999985	610.44306	1258.72843	-87.18818999999986	-16.59530000000002	1245.52762	147.59760000000009	300.97840999999994	1140.73835	235.4772600000001	322.97976	1136.77811	172.1133900000001	321.65968	1175.18617	202.5381000000001	45.51136000000002	1228.11512	-140.17999999999992	239.4375	944.54921	-100.89188999999992	234.53435	944.10918	-33.88206999999991	266.09056	967.87063	-62.86098999999991	335.42623	1092.83828	213.8530800000001	100.45185999999997	795.82011	183.36550000000005	121.19598999999998	791.29412	127.10492000000006	288.65766	915.69601	-66.25547999999992	236.35732	541.736	-108.37233999999994	236.73448	539.72444	-48.277239999999935	11.692139999999988	703.6659	97.05737000000005	154.26085999999998	597.30511	153.06651000000005	104.78926999999997	604.84843	225.67095000000003	146.52895999999998	586.74446	200.96658000000005	38.722369999999984	677.32715	118.17866000000004	196.25199999999998	548.08496	238.87175000000005	146.4661	426.07178	-76.06179999999996	304.56149	371.5713	6.53754000000006	320.3396	357.30186	-79.07911999999993	335.11193	356.1075	-29.481799999999936	185.06275	409.35075	-66.12975999999995	403.50468	334.48332	-13.263669999999928	
687	11.433	0.0	1249.99075	7.653985854756496E-14	33.06487999999999	1332.02434	140.80861000000007	103.90921000000002	1334.85308	-98.1888599999999	6.977569999999987	1398.1541	110.76106000000009	65.24971000000001	1400.47995	-85.8052499999999	-69.08423	1203.47362	32.436270000000064	-39.916729999999994	1204.66798	-65.81544999999993	-56.44917	1276.51808	-16.40671999999993	-12.13217	1365.46638	-2.6401599999999177	39.79101	1457.99776	15.212360000000094	90.33124	1540.65996	32.93916000000011	312.60769	1575.79925	109.88101000000015	211.46436	1666.19335	76.06180000000013	150.04918	1614.77306	54.12331000000012	231.51702	1501.87473	80.83923000000011	244.46638	1693.60074	89.76549000000013	405.13907	1866.7199	109.69242000000015	363.65082	1782.80048	176.76510000000016	371.82274	1777.33158	45.25991000000015	320.27673	1800.46442	107.24085000000015	200.58940999999996	1650.35238	256.78714000000014	311.97908	1637.78018	-75.55890999999986	286.1432199999999	1430.15034	325.80850000000015	270.55368999999996	1404.4402	281.0514800000002	434.30657	1426.81871	-96.30302999999986	396.33853	1396.20541	-73.29590999999988	381.6290599999999	1268.91191	412.9966900000001	413.4995799999999	1271.55207	382.8862800000001	261.06167999999997	1419.96686	318.6423500000002	579.07542	1278.65536	-100.51471999999984	582.46992	1280.72977	-56.76346999999985	412.43094	1414.43509	-107.36656999999985	555.06252	1247.72775	454.5478000000001	474.85189999999994	1250.43077	464.35412000000014	420.54000999999994	1253.38524	423.7459200000001	732.33051	1223.40055	-29.73324999999984	678.01862	1243.95609	-85.99382999999985	611.63741	1258.47698	-87.12532999999986	-16.658160000000017	1246.34481	147.47188000000008	304.43576999999993	1152.68194	235.28868000000008	326.31139	1149.036	171.8619400000001	323.85981	1187.56979	202.03522000000012	45.38563000000001	1227.92654	-140.17999999999992	233.08854	939.96035	-102.71484999999991	228.18539	939.20602	-35.70503999999991	260.24449	962.40173	-64.55822999999991	340.07795	1105.78764	213.8530800000001	113.46407999999997	801.91762	187.64005000000006	133.95676999999998	797.45449	131.25374000000008	281.99439	910.41569	-68.14130999999992	225.98525	537.39859	-113.90410999999995	226.17384	534.88415	-53.80900999999994	28.601749999999985	704.7974	102.46341000000004	175.50787999999997	605.47704	160.10694000000007	125.65911999999997	611.88886	232.58566000000005	168.15313999999998	595.29356	208.19559000000007	56.70060999999998	679.96731	124.02473000000005	219.51056999999997	559.27421	246.72938000000005	132.38524	424.31167	-84.17085999999996	288.28049	363.21079	-2.1372699999999427	304.0586	350.1357	-87.94251999999993	318.51663	347.49554	-38.34519999999994	170.41614	406.14484	-74.49026999999995	386.09219	323.35692	-22.315649999999934	
688	11.45	0.0	1249.99075	7.653985854756496E-14	32.49912999999999	1332.15006	140.87147000000007	104.41210000000001	1334.6645	-97.8745599999999	6.600399999999986	1398.27982	110.63534000000008	65.68973000000001	1400.35423	-85.6795299999999	-69.20995	1203.53648	32.18483000000006	-39.665279999999996	1204.60511	-65.94117999999993	-56.38631	1276.51808	-16.72101999999993	-12.00645	1365.52924	-2.765879999999918	40.10531	1457.9349	15.212360000000094	90.83413	1540.47137	33.12774000000011	313.29916	1574.47917	110.06959000000015	212.533	1665.43902	76.50182000000012	150.86637	1614.33303	54.43762000000012	231.83132	1500.99467	80.90209000000011	245.66074	1692.59497	90.26838000000012	406.14484	1865.5884	110.38390000000017	364.71945	1781.54326	177.33085000000017	373.0171	1776.13722	45.88852000000015	321.40823	1799.14434	107.80659000000016	201.40660999999997	1649.22088	257.16430000000014	312.79628	1636.90013	-75.24459999999986	287.21184999999997	1429.33315	325.87136000000015	271.7480499999999	1403.623	281.0514800000002	435.3752	1426.1901	-96.05158999999986	397.40717	1395.51394	-73.10732999999988	383.01199999999994	1268.15757	412.9966900000001	414.94537999999994	1270.98632	382.9491400000001	262.1931799999999	1419.02394	318.7052100000002	580.26978	1278.27819	-100.45185999999984	583.72714	1280.28974	-56.70060999999985	413.43672	1413.80648	-107.17797999999986	556.38261	1247.09914	454.7992500000001	476.23484999999994	1249.7393	464.47984000000014	421.92294999999996	1252.75663	423.7459200000001	733.65059	1223.21197	-29.796109999999835	679.27584	1243.70465	-85.99382999999985	612.95749	1258.16268	-87.06246999999986	-16.783880000000018	1247.09914	147.40902000000008	306.95019999999994	1162.80256	235.0372300000001	328.76297	1159.28234	171.5476400000001	325.36847	1197.94185	201.46947000000011	45.38563000000001	1227.80082	-140.17999999999992	228.43683	936.62872	-104.22351999999991	223.47081	935.62295	-37.21369999999992	255.96994	958.50435	-65.87831999999992	344.10105	1116.78831	213.7273600000001	126.66488999999997	806.00359	191.53743000000009	146.84326999999996	801.72904	135.02540000000008	276.90265	906.204	-69.77569999999992	215.61319000000003	534.56984	-119.81303999999994	215.55033	531.36393	-59.780799999999935	46.01423999999999	703.98021	107.68087000000004	197.13205999999997	612.20316	166.95878000000005	146.90612999999996	617.48349	239.31178000000006	190.15448999999998	602.39685	215.17316000000005	75.11887999999999	680.72164	129.61936000000003	243.02057999999997	569.33197	254.20984000000007	118.61868000000001	424.18595	-92.53136999999995	272.25094	356.86183	-11.063529999999945	287.90333	344.85538	-97.05736999999996	302.10991	340.89514	-47.397189999999945	156.02097	404.69904	-82.97649999999996	368.86828	314.43066	-31.556219999999936	
689	11.467	0.0	1249.99075	7.653985854756496E-14	31.996239999999982	1332.27578	140.93434000000008	104.91499000000002	1334.41305	-97.4973899999999	6.286099999999987	1398.40554	110.44676000000008	66.25548000000002	1400.16565	-85.5537999999999	-69.46139	1203.6622	31.933380000000067	-39.41383999999999	1204.54225	-66.06689999999993	-56.26058	1276.58095	-16.97246999999993	-11.81787	1365.59211	-2.891609999999918	40.48248	1457.87204	15.212360000000094	91.46274	1540.21993	33.2534600000001	313.99064	1573.34767	110.25817000000015	213.60164	1664.74755	76.81613000000013	151.74643	1613.89301	54.68906000000012	232.27135	1500.24034	80.96495000000012	246.72938	1691.65205	90.58268000000012	407.15062	1864.58263	110.69820000000017	365.85095	1780.47463	177.64515000000017	374.1486	1775.06858	46.20283000000015	322.47687	1798.0757	108.12090000000016	202.22379999999998	1648.40369	257.3528900000001	313.73919	1636.02008	-74.99315999999986	288.28048999999993	1428.70454	325.99708000000015	272.87954999999994	1403.05725	281.1143400000002	436.5067	1425.62435	-95.80014999999986	398.53866	1394.82246	-72.98160999999988	384.26921999999996	1267.59182	412.9338300000001	416.32831999999996	1270.60915	382.9491400000001	263.26181999999994	1418.33247	318.7052100000002	581.527	1277.7753	-100.45185999999984	585.04722	1279.84972	-56.63774999999985	414.56822	1413.17787	-106.98939999999986	557.63983	1246.47053	454.9249700000001	477.4291999999999	1249.17356	464.54270000000014	423.1801699999999	1252.25374	423.7459200000001	735.03353	1222.8348	-29.858969999999836	680.59592	1243.32748	-85.99382999999985	614.21471	1257.72265	-87.06246999999986	-16.90961000000002	1247.91634	147.28330000000008	308.64744999999994	1170.84876	234.6600700000001	330.39735	1167.20283	171.1704700000001	326.24853	1206.05092	200.7780000000001	45.63708000000001	1227.73796	-140.17999999999992	225.73381	934.61717	-105.35501999999991	220.70493	933.29709	-38.34519999999991	253.39264	955.98991	-66.94694999999992	347.43268	1125.65171	213.41305000000008	139.86569999999998	807.95228	195.05765000000008	159.66690999999997	803.99204	138.3570300000001	273.50816	903.06095	-71.22149999999992	205.17827000000003	533.37548	-126.41344999999994	204.8011	529.41524	-66.38119999999995	63.866759999999985	701.0886	112.64689000000006	219.07053999999997	617.42062	173.37061000000006	168.59316999999996	621.50659	245.59788000000006	212.53299999999996	608.05434	221.71070000000006	94.04003999999999	679.59014	134.96254000000002	266.71916999999996	578.19537	261.3131300000001	105.04071000000002	425.44317	-101.08046999999996	256.47283	352.713	-20.115519999999947	272.12522	341.52375	-106.23506999999995	286.0175	336.43201	-56.57488999999995	141.87725	404.7619	-91.65131999999996	352.02153	307.83026	-40.859639999999935	
